<?xml version="1.0" encoding="utf-8"?>
<!-- Generator: Adobe Illustrator 22.0.0, SVG Export Plug-In . SVG Version: 6.00 Build 0)  -->
<svg version="1.1" xmlns="http://www.w3.org/2000/svg" xmlns:xlink="http://www.w3.org/1999/xlink" x="0px" y="0px"
	 viewBox="0 0 400 369.4" style="enable-background:new 0 0 400 369.4;" xml:space="preserve">
<style type="text/css">
	.st0{fill:none;stroke:#000000;stroke-width:2;stroke-linecap:round;stroke-linejoin:round;stroke-miterlimit:10;}
</style>
<g id="Layer_1">
	<g>
		<path class="st0" d="M382,187.5c-8.7,9.5-25.9,16.9-43.2,13.9c-3.4-0.6-7-1.5-10.2-2.8c0,0-7.4-2.6-13.5-7
			c-8.8-6.2-14.9-14.4-13.8-23.1c2.8-22.2,28.5-24.5,37-8.5c4.8,9,3.1,18.8-6.2,27.7c-5.9,5.6-12.9,10.5-24.2,12.9"/>
		<path class="st0" d="M139.1,330.5c13.2,13.9,31.3,22.2,47.4,25.3c20.1,3.9,61.5-1.1,85.9-40c17.2-27.7,21.4-82.8,18.8-142.4
			c-0.3-5.9-0.8-16.4-12.2-21.7c-4.6-2.2-10.7-3.3-17.7,0.6c-10.7,6-12.2,16.9-8.7,26c4.3,11,17.7,17.5,22.8,19.5"/>
		<path class="st0" d="M185.3,13.2c0,0-166.3,100.4-166.3,222.4c0,39.1,21.4,61.8,36,71c46.3,29.1,85.4,7,95.5-0.2
			c9.5-6.8,26.3-21.1,32.7-44.8c3.9-14.7,5.1-33.3,0.8-47c-4.3-13.8-17.8-17.5-28.2-12.9c-8.2,3.6-20.5,15.3-27.4,26.8
			c-8.8,14.7-13.5,31.3-11.9,50.5c0.8,8.7,2.6,16.6,5.4,23.7"/>
	</g>
</g>
<g id="Layer_2">
</g>
</svg>
