<?xml version="1.0" encoding="utf-8"?>
<!-- Generator: Adobe Illustrator 22.0.0, SVG Export Plug-In . SVG Version: 6.00 Build 0)  -->
<svg version="1.1" id="Layer_1" xmlns="http://www.w3.org/2000/svg" xmlns:xlink="http://www.w3.org/1999/xlink" x="0px" y="0px"
	 viewBox="0 0 400 369.4" style="enable-background:new 0 0 400 369.4;" xml:space="preserve">
<g>
	<path id="SVGID_5_" d="M275.5,190.8c-7.6-3.1-16.8-8.9-19.6-16.1c-1.4-3.7-3.7-12.7,5.8-18c3.9-2.2,7.5-2.3,11.8-0.3
		c7.3,3.3,8.1,9.3,8.4,16.2c2.9,69.8-3.4,119.4-18.4,143.4c-23.6,37.9-63.6,41.5-81.4,38.1c-15.6-3-30.8-10.5-41.8-20.6
		c0,0-1.9-1.6-3-3.7c0,0-8.7,3.9-13.8,5.5c0.2,0.4,1.4,2.2,3,4.2c1.9,2.5,4.1,4.6,4.1,4.6c13.1,12.1,30.5,20.7,48.9,24.2
		c3.9,0.7,8.6,1.2,13.9,1.2c23.9,0,59.8-9.4,82.5-45.8c16.8-26.9,23.7-77.9,20.6-151.7c-0.3-6.4-0.9-21.5-16.9-28.8
		c-8.5-3.9-16.8-3.6-24.8,0.9c-13.1,7.2-17.9,21.3-12.3,35.8c5.4,14.1,21.2,21.7,27.7,24.3c0,0,2.7,1.2,5.4,1.4
		C275.4,205.6,275.6,190.6,275.5,190.8z"/>
</g>
<g>
	<path id="SVGID_1_" d="M106.1,307.2c-1-2.9-1.5-5-1.6-5.8c-1.8-6.2-3-12.6-3.5-19.1c-1.6-20,2.9-39.1,13.3-56.6
		c7.8-13,21.4-26.3,31.7-30.8c7.6-3.3,16.2-3.3,23.6,0c7.3,3.3,12.7,9.6,15.4,17.8c4.5,14.1,4.3,33.9-0.7,52.8
		c-5.2,19.7-17.9,37.1-36.7,50.5c-5.4,3.8-25.6,16.7-53.5,16.7c-15.8,0-34-4.1-53.5-16.3C31.1,310.4,0,287,0,236.6
		c0-53.7,30.5-111.8,88.3-167.8C131.5,26.9,173.9,1.1,175.7,0l7.5,12.4c-1.7,1-168.8,103.4-168.8,224.3c0,34.1,17.5,57.2,33.8,67.5
		c46,28.9,83.8,5.1,90.9,0.1c16.2-11.5,26.7-25.8,31.1-42.4c4.2-16.1,4.6-33.2,0.9-44.7c-1.4-4.3-4-7.4-7.6-9.1
		c-3.6-1.6-8-1.6-11.8,0.1c-6.7,2.9-18.3,13.6-25.1,24.9c-9,15.1-12.7,30.8-11.3,48c0.5,5.6,1.5,11.1,3,16.4l0.1,0.6
		c0,0,0.4,1.8,1.3,4.5l1.1,3.6c-4,1.6-8.4,3.1-13.8,4L106.1,307.2z"/>
</g>
<g>
	<path d="M389.4,181.8c-6.8,7.4-20.4,13.7-34.5,12.7c-2.8,0-5.5-0.5-8.1-1.1c0.1-0.1,0.2-0.2,0.2-0.2c0.3-0.3,0.6-0.5,0.9-0.8
		c11.7-11.1,14.6-24.8,7.8-37.4c-5.7-10.6-17.5-16.2-29.4-14c-12.2,2.3-20.8,12-22.5,25.3c-1,8.3,2.4,16.2,8.5,22.9
		c1.5,1.7,3.2,3.3,5,4.8c-3.2,0.9-8.8,1.8-12.8,2.1l0.2,14.4c11-0.4,21.4-3.7,27.9-7.1c0,0,0.1,0,0.1-0.1c4.1,1.8,7,2.7,7,2.7
		c2.9,0.9,5.9,1.7,8.9,2.2c21.5,3.6,41.3-5.8,51.3-16.7L389.4,181.8z M337.9,181.8c-1.7,1.6-3.7,3.3-5.9,5c-3.7-2.3-5.9-4.3-5.9-4.3
		c-5.4-4.6-8.5-9.8-8-14.4c1.2-10.1,8-12.4,10.8-12.9c0.8-0.1,1.6-0.2,2.4-0.2c4.3,0,9,2,11.6,6.8
		C346.5,168.5,344.8,175.3,337.9,181.8z"/>
</g>
</svg>
