<?xml version="1.0" encoding="utf-8"?>
<!-- Generator: Adobe Illustrator 22.0.0, SVG Export Plug-In . SVG Version: 6.00 Build 0)  -->
<svg version="1.1" id="Layer_1" xmlns="http://www.w3.org/2000/svg" xmlns:xlink="http://www.w3.org/1999/xlink" x="0px" y="0px"
	 viewBox="0 0 400 369.4" style="enable-background:new 0 0 400 369.4;" xml:space="preserve">
<style type="text/css">
	.st0{fill:#DB0032;}
	.st1{opacity:0.65;}
	.st2{opacity:0.7;clip-path:url(#SVGID_2_);fill:url(#SVGID_3_);}
	.st3{opacity:0.7;clip-path:url(#SVGID_5_);fill:url(#SVGID_6_);}
	.st4{opacity:0.7;clip-path:url(#SVGID_5_);fill:url(#SVGID_7_);}
	.st5{opacity:0.7;clip-path:url(#SVGID_9_);fill:url(#SVGID_10_);}
</style>
<g>
	<path class="st0" d="M389.4,181.8c-6.8,7.4-20.4,13.7-34.5,12.7c-2.8,0-5.5-0.5-8.1-1.1c0.1-0.1,0.2-0.2,0.2-0.2
		c0.3-0.3,0.6-0.5,0.9-0.8c11.7-11.1,14.6-24.8,7.8-37.4c-5.7-10.6-17.5-16.2-29.4-14c-12.2,2.3-20.8,12-22.5,25.3
		c-1,8.3,2.4,16.2,8.5,22.9c1.5,1.7,3.2,3.3,5,4.8c-3.2,0.9-8.8,1.8-12.8,2.1l0.2,14.4c11-0.4,21.4-3.7,27.9-7.1c0,0,0.1,0,0.1-0.1
		c4.1,1.8,7,2.7,7,2.7c2.9,0.9,5.9,1.7,8.9,2.2c21.5,3.6,41.3-5.8,51.3-16.7L389.4,181.8z M318.1,168.1c1.2-10.1,8-12.4,10.8-12.9
		c0.8-0.1,1.6-0.2,2.4-0.2c4.3,0,9,2,11.6,6.8c3.6,6.7,1.9,13.5-5,20c-1.7,1.6-3.7,3.3-5.9,5c-3.7-2.3-5.9-4.3-5.9-4.3
		C320.7,177.9,317.6,172.7,318.1,168.1z"/>
	<path class="st0" d="M275.5,190.8c-7.6-3.1-16.8-8.9-19.6-16.1c-1.4-3.7-3.7-12.7,5.8-18c3.9-2.2,7.5-2.3,11.8-0.3
		c7.3,3.3,8.1,9.3,8.4,16.2c2.9,69.8-3.4,119.4-18.4,143.4c-23.6,37.9-63.6,41.5-81.4,38.1c-15.6-3-30.8-10.5-41.8-20.6
		c0,0-1.9-1.6-3-3.7c0,0-8.7,3.9-13.8,5.5c0.2,0.4,1.4,2.2,3,4.2c1.9,2.5,4.1,4.6,4.1,4.6c13.1,12.1,30.5,20.7,48.9,24.2
		c3.9,0.7,8.6,1.2,13.9,1.2c23.9,0,59.8-9.4,82.5-45.8c16.8-26.9,23.7-77.9,20.6-151.7c-0.3-6.4-0.9-21.5-16.9-28.8
		c-8.5-3.9-16.8-3.6-24.8,0.9c-13.1,7.2-17.9,21.3-12.3,35.8c5.4,14.1,21.2,21.7,27.7,24.3c0,0,2.7,1.2,5.4,1.4
		C275.4,205.6,275.6,190.6,275.5,190.8z"/>
	<path class="st0" d="M106.1,307.2c-1-2.9-1.5-5-1.6-5.8c-1.8-6.2-3-12.6-3.5-19.1c-1.6-20,2.9-39.1,13.3-56.6
		c7.8-13,21.4-26.3,31.7-30.8c7.6-3.3,16.2-3.3,23.6,0c7.3,3.3,12.7,9.6,15.4,17.8c4.5,14.1,4.3,33.9-0.7,52.8
		c-5.2,19.7-17.9,37.1-36.7,50.5c-5.4,3.8-25.6,16.7-53.5,16.7c-15.8,0-34-4.1-53.5-16.3C31.1,310.4,0,287,0,236.6
		c0-53.7,30.5-111.8,88.3-167.8C131.5,26.9,173.9,1.1,175.7,0l7.5,12.4c-1.7,1-168.8,103.4-168.8,224.3c0,34.1,17.5,57.2,33.8,67.5
		c46,28.9,83.8,5.1,90.9,0.1c16.2-11.5,26.7-25.8,31.1-42.4c4.2-16.1,4.6-33.2,0.9-44.7c-1.4-4.3-4-7.4-7.6-9.1
		c-3.6-1.6-8-1.6-11.8,0.1c-6.7,2.9-18.3,13.6-25.1,24.9c-9,15.1-12.7,30.8-11.3,48c0.5,5.6,1.5,11.1,3,16.4l0.1,0.6
		c0,0,0.4,1.8,1.3,4.5l1.1,3.6c-4,1.6-8.4,3.1-13.8,4L106.1,307.2z"/>
	<g class="st1">
		<defs>
			<path id="SVGID_1_" class="st1" d="M106.1,307.2c-1-2.9-1.5-5-1.6-5.8c-1.8-6.2-3-12.6-3.5-19.1c-1.6-20,2.9-39.1,13.3-56.6
				c7.8-13,21.4-26.3,31.7-30.8c7.6-3.3,16.2-3.3,23.6,0c7.3,3.3,12.7,9.6,15.4,17.8c4.5,14.1,4.3,33.9-0.7,52.8
				c-5.2,19.7-17.9,37.1-36.7,50.5c-5.4,3.8-25.6,16.7-53.5,16.7c-15.8,0-34-4.1-53.5-16.3C31.1,310.4,0,287,0,236.6
				c0-53.7,30.5-111.8,88.3-167.8C131.5,26.9,173.9,1.1,175.7,0l7.5,12.4c-1.7,1-168.8,103.4-168.8,224.3
				c0,34.1,17.5,57.2,33.8,67.5c46,28.9,83.8,5.1,90.9,0.1c16.2-11.5,26.7-25.8,31.1-42.4c4.2-16.1,4.6-33.2,0.9-44.7
				c-1.4-4.3-4-7.4-7.6-9.1c-3.6-1.6-8-1.6-11.8,0.1c-6.7,2.9-18.3,13.6-25.1,24.9c-9,15.1-12.7,30.8-11.3,48
				c0.5,5.6,1.5,11.1,3,16.4l0.1,0.6c0,0,0.4,1.8,1.3,4.5l1.1,3.6c-4,1.6-8.4,3.1-13.8,4L106.1,307.2z"/>
		</defs>
		<clipPath id="SVGID_2_">
			<use xlink:href="#SVGID_1_"  style="overflow:visible;"/>
		</clipPath>
		
			<linearGradient id="SVGID_3_" gradientUnits="userSpaceOnUse" x1="689.768" y1="467.6624" x2="726.6792" y2="490.7967" gradientTransform="matrix(0.1414 2.2921 -0.9981 6.156847e-02 496.0737 -1417.0079)">
			<stop  offset="0" style="stop-color:#FFFFFF;stop-opacity:0"/>
			<stop  offset="3.291965e-02" style="stop-color:#F1F1F1;stop-opacity:3.291965e-02"/>
			<stop  offset="0.1902" style="stop-color:#B2B2B2;stop-opacity:0.1902"/>
			<stop  offset="0.3458" style="stop-color:#7C7C7C;stop-opacity:0.3458"/>
			<stop  offset="0.496" style="stop-color:#4F4F4F;stop-opacity:0.496"/>
			<stop  offset="0.6395" style="stop-color:#2D2D2D;stop-opacity:0.6395"/>
			<stop  offset="0.7747" style="stop-color:#141414;stop-opacity:0.7747"/>
			<stop  offset="0.8985" style="stop-color:#050505;stop-opacity:0.8985"/>
			<stop  offset="1" style="stop-color:#000000"/>
		</linearGradient>
		<path class="st2" d="M113.2,312.4c-14,0.9-27-24.5-29-56.7c-2-32.2,31.5-59.9,45.5-60.7c5.2-0.3,37.5-4.3,21.9,15.5
			c-7.7,9.8-20,23.6-18.7,43.9C135,286.6,127.3,311.6,113.2,312.4z"/>
	</g>
	<g class="st1">
		<defs>
			<path id="SVGID_4_" class="st1" d="M275.5,190.8c-7.6-3.1-16.8-8.9-19.6-16.1c-1.4-3.7-3.7-12.7,5.8-18c3.9-2.2,7.5-2.3,11.8-0.3
				c7.3,3.3,8.1,9.3,8.4,16.2c2.9,69.8-3.4,119.4-18.4,143.4c-23.6,37.9-63.6,41.5-81.4,38.1c-15.6-3-30.8-10.5-41.8-20.6
				c0,0-1.9-1.6-3-3.7c0,0-8.7,3.9-13.8,5.5c0.2,0.4,1.4,2.2,3,4.2c1.9,2.5,4.1,4.6,4.1,4.6c13.1,12.1,30.5,20.7,48.9,24.2
				c3.9,0.7,8.6,1.2,13.9,1.2c23.9,0,59.8-9.4,82.5-45.8c16.8-26.9,23.7-77.9,20.6-151.7c-0.3-6.4-0.9-21.5-16.9-28.8
				c-8.5-3.9-16.8-3.6-24.8,0.9c-13.1,7.2-17.9,21.3-12.3,35.8c5.4,14.1,21.2,21.7,27.7,24.3c0,0,2.7,1.2,5.4,1.4
				C275.4,205.6,275.6,190.6,275.5,190.8z"/>
		</defs>
		<clipPath id="SVGID_5_">
			<use xlink:href="#SVGID_4_"  style="overflow:visible;"/>
		</clipPath>
		
			<linearGradient id="SVGID_6_" gradientUnits="userSpaceOnUse" x1="600.8565" y1="-504.9925" x2="680.9427" y2="-553.0655" gradientTransform="matrix(-1.1907 -0.7786 0.5473 -0.8369 1258.2963 395.3837)">
			<stop  offset="1.074986e-02" style="stop-color:#FFFFFF;stop-opacity:0"/>
			<stop  offset="9.547492e-02" style="stop-color:#DDDDDD;stop-opacity:9.201008e-02"/>
			<stop  offset="0.2718" style="stop-color:#9A9A9A;stop-opacity:0.2834"/>
			<stop  offset="0.4395" style="stop-color:#636363;stop-opacity:0.4656"/>
			<stop  offset="0.5939" style="stop-color:#383838;stop-opacity:0.6333"/>
			<stop  offset="0.7322" style="stop-color:#1A1A1A;stop-opacity:0.7835"/>
			<stop  offset="0.8494" style="stop-color:#070707;stop-opacity:0.9108"/>
			<stop  offset="0.9316" style="stop-color:#000000"/>
		</linearGradient>
		<path class="st3" d="M121.7,332c7.7-11.7,27.5-12.4,44.2-1.5c6.9,4.5,35.7,19.7,47.5,5.8c35.3-41.8,136.2-55.5,42.3,27.8
			c-33.2,29.4-100.9,19.8-117.6,8.9C121.4,362.2,114,343.8,121.7,332z"/>
		
			<linearGradient id="SVGID_7_" gradientUnits="userSpaceOnUse" x1="395.9334" y1="599.6001" x2="436.6935" y2="599.6001" gradientTransform="matrix(0.9661 0.9661 -0.7071 0.7071 277.7521 -634.1383)">
			<stop  offset="0" style="stop-color:#FFFFFF;stop-opacity:0"/>
			<stop  offset="3.291965e-02" style="stop-color:#F1F1F1;stop-opacity:3.291965e-02"/>
			<stop  offset="0.1902" style="stop-color:#B2B2B2;stop-opacity:0.1902"/>
			<stop  offset="0.3458" style="stop-color:#7C7C7C;stop-opacity:0.3458"/>
			<stop  offset="0.496" style="stop-color:#4F4F4F;stop-opacity:0.496"/>
			<stop  offset="0.6395" style="stop-color:#2D2D2D;stop-opacity:0.6395"/>
			<stop  offset="0.7747" style="stop-color:#141414;stop-opacity:0.7747"/>
			<stop  offset="0.8985" style="stop-color:#050505;stop-opacity:0.8985"/>
			<stop  offset="1" style="stop-color:#000000"/>
		</linearGradient>
		<path class="st4" d="M275.7,211.7c-8,8-23.2,5.6-34.1-5.3s-13.2-26.1-5.3-34.1c8-8,23.2-5.6,34.1,5.3
			C281.3,188.5,283.6,203.8,275.7,211.7z"/>
	</g>
	<g>
		<defs>
			<path id="SVGID_8_" d="M389.4,181.8c-6.8,7.4-20.4,13.7-34.5,12.7c-2.8,0-5.5-0.5-8.1-1.1c0.1-0.1,0.2-0.2,0.2-0.2
				c0.3-0.3,0.6-0.5,0.9-0.8c11.7-11.1,14.6-24.8,7.8-37.4c-5.7-10.6-17.5-16.2-29.4-14c-12.2,2.3-20.8,12-22.5,25.3
				c-1,8.3,2.4,16.2,8.5,22.9c1.5,1.7,3.2,3.3,5,4.8c-3.2,0.9-8.8,1.8-12.8,2.1l0.2,14.4c11-0.4,21.4-3.7,27.9-7.1
				c0,0,0.1,0,0.1-0.1c4.1,1.8,7,2.7,7,2.7c2.9,0.9,5.9,1.7,8.9,2.2c21.5,3.6,41.3-5.8,51.3-16.7L389.4,181.8z M318.1,168.1
				c1.2-10.1,8-12.4,10.8-12.9c0.8-0.1,1.6-0.2,2.4-0.2c4.3,0,9,2,11.6,6.8c3.6,6.7,1.9,13.5-5,20c-1.7,1.6-3.7,3.3-5.9,5
				c-3.7-2.3-5.9-4.3-5.9-4.3C320.7,177.9,317.6,172.7,318.1,168.1z"/>
		</defs>
		<clipPath id="SVGID_9_">
			<use xlink:href="#SVGID_8_"  style="overflow:visible;"/>
		</clipPath>
		
			<linearGradient id="SVGID_10_" gradientUnits="userSpaceOnUse" x1="855.1849" y1="-86.2668" x2="893.9957" y2="-86.2668" gradientTransform="matrix(-1.3123 0.3802 -0.2783 -0.9605 1436.5237 -213.6018)">
			<stop  offset="0" style="stop-color:#FFFFFF;stop-opacity:0"/>
			<stop  offset="3.291965e-02" style="stop-color:#F1F1F1;stop-opacity:3.291965e-02"/>
			<stop  offset="0.1902" style="stop-color:#B2B2B2;stop-opacity:0.1902"/>
			<stop  offset="0.3458" style="stop-color:#7C7C7C;stop-opacity:0.3458"/>
			<stop  offset="0.496" style="stop-color:#4F4F4F;stop-opacity:0.496"/>
			<stop  offset="0.6395" style="stop-color:#2D2D2D;stop-opacity:0.6395"/>
			<stop  offset="0.7747" style="stop-color:#141414;stop-opacity:0.7747"/>
			<stop  offset="0.8985" style="stop-color:#050505;stop-opacity:0.8985"/>
			<stop  offset="1" style="stop-color:#000000"/>
		</linearGradient>
		<path class="st5" d="M299.1,207.5c-1.9-6.7-2.8-15.6,12.5-13.6c16.6,2.1,21-12.2,27.8-11c22.5,4-0.9,17.4-17.1,27
			C314.1,214.9,301,214.2,299.1,207.5z"/>
	</g>
</g>
</svg>
