<?xml version="1.0" encoding="utf-8"?>
<!-- Generator: Adobe Illustrator 22.0.0, SVG Export Plug-In . SVG Version: 6.00 Build 0)  -->
<svg version="1.1" id="Layer_1" xmlns="http://www.w3.org/2000/svg" xmlns:xlink="http://www.w3.org/1999/xlink" x="0px" y="0px"
	 viewBox="0 0 400 369.4" style="enable-background:new 0 0 400 369.4;" xml:space="preserve">
<style type="text/css">
	.st0{fill:none;stroke:#4B4B4B;stroke-width:0.5;stroke-miterlimit:10;}
</style>
<g id="Layer_1_1_">
	<g>
		<polyline class="st0" points="289.5,369.2 289.5,369.2 289.5,228.3 289.5,0 289.5,0 		"/>
		<polyline class="st0" points="400,188.8 340.1,188.8 200,188.8 0,188.8 		"/>
		<line class="st0" x1="19" y1="0" x2="19" y2="369.2"/>
		<line class="st0" x1="186.2" y1="369.4" x2="186.2" y2="0"/>
		<g>
			
				<ellipse transform="matrix(0.3162 -0.9487 0.9487 0.3162 23.8605 372.3044)" class="st0" cx="270.2" cy="169.6" rx="19.8" ry="19.8"/>
			<circle class="st0" cx="320.5" cy="169.6" r="19.8"/>
			<circle class="st0" cx="295.4" cy="149.6" r="51.9"/>
			<circle class="st0" cx="345.7" cy="149.6" r="51.9"/>
			<circle class="st0" cx="299.9" cy="200.8" r="7.6"/>
			<circle class="st0" cx="282.7" cy="200.8" r="7.6"/>
		</g>
		<g>
			<circle class="st0" cx="190.2" cy="148.2" r="135.6"/>
			<g>
				<g>
					<circle class="st0" cx="102.8" cy="236.9" r="83.8"/>
					<circle class="st0" cx="200.1" cy="272.4" r="83.8"/>
					<ellipse class="st0" cx="151.3" cy="254.7" rx="32.1" ry="32.1"/>
				</g>
				<circle class="st0" cx="164.2" cy="219.3" r="19.8"/>
				<circle class="st0" cx="138.5" cy="290" r="19.8"/>
				<circle class="st0" cx="124.3" cy="309.3" r="7.6"/>
				<circle class="st0" cx="134.2" cy="323.7" r="7.6"/>
			</g>
		</g>
	</g>
</g>
<g id="Layer_2_1_">
</g>
</svg>
